<?xml version="1.0" encoding="UTF-8" standalone="no"?>
<svg width="500px" height="67px" viewBox="0 0 500 67" version="1.1" xmlns="http://www.w3.org/2000/svg" xmlns:xlink="http://www.w3.org/1999/xlink">
    <!-- Generator: Sketch 3.6.1 (26313) - http://www.bohemiancoding.com/sketch -->
    <title>bglobe-logo-white</title>
    <desc>Created with Sketch.</desc>
    <defs></defs>
    <g id="logo" stroke="none" stroke-width="1" fill="none" fill-rule="evenodd">
        <g id="logo-white" fill="#FFFFFF">
            <g id="bglobe-logo-white">
                <path d="M461.87207,41.1542969 C461.87207,46.0644531 461.647461,55.6699219 461.647461,56.0058594 L461.313477,56.3378906 L452.041016,50.5371094 L452.041016,27.75 C453.493164,25.5175781 455.503906,24.3984375 457.291016,24.3984375 C459.412109,24.3984375 460.975586,25.9628906 461.755859,28.0839844 C461.755859,28.9785156 461.87207,34.8984375 461.87207,41.1542969 L461.87207,41.1542969 Z M492.47168,31.8847656 L483.871094,38.9199218 L483.871094,22.9492188 L492.47168,31.8847656 L492.47168,31.8847656 Z M469.686523,52.0996094 C469.12793,47.0742188 469.243164,33.4453125 469.243164,27.0800782 C469.243164,22.9492188 465.666992,19.9316407 461.197266,18.0332032 L452.041016,25.7382813 L452.041016,8.9863281 C452.041016,6.1972656 453.714844,3.1777343 455.722656,3.1777343 L455.722656,2.6191406 C451.370117,2.6191406 446.569336,6.0839844 445.78418,8.3183594 C444.782227,6.640625 442.4375,5.6347656 440.205078,5.6347656 L440.089844,6.5273437 C442.325195,6.5273437 444.446289,10.3281249 444.446289,17.0312499 C444.446289,30.5410155 444.335937,43.4999999 444.335937,49.0781249 C444.335937,50.8710937 444.111328,52.0996093 443.102539,53.5507811 L456.84375,61.921875 C462.09082,57.015625 464.101563,55.5625 469.686523,52.0996094 L469.686523,52.0996094 Z M499.958008,49.9785156 L499.283203,49.3027344 C495.824219,52.7675782 493.80957,54.21875 491.801758,54.21875 C489.789063,54.21875 487.890625,52.9902344 483.871094,49.8632812 L483.871094,40.7050781 L499.621094,28.0839843 C495.932617,24.9570312 488.339844,17.3613281 488.339844,17.3613281 C484.092773,21.1621093 481.637695,23.2832031 475.719727,27.4160156 C475.941406,28.6425781 476.166992,30.3164062 476.166992,31.6582031 L476.166992,49.4179687 C476.166992,50.6464843 476.054687,51.5390625 475.603516,52.9902343 L488.00293,61.6972655 L499.958008,49.9785156 L499.958008,49.9785156 Z M353.085938,42.9414062 C353.085938,45.9550781 352.19043,47.8515624 350.181641,49.4179687 C345.603516,44.9472656 343.371094,38.6953125 343.371094,32.4394531 C343.371094,23.0625 346.606445,19.4824219 351.078125,16.2460937 C351.74707,15.6874999 352.416015,15.2382812 353.085937,14.7949218 L353.085937,42.9414062 L353.085938,42.9414062 Z M365.147461,55.78125 C359.230469,55.3378906 354.651367,53.3261719 351.078125,50.3105469 C356.546875,46.5136719 360.009766,44.6191407 360.009766,38.8027344 L360.009766,9.8789062 L361.6875,8.5429688 C362.915039,8.9863282 363.920898,9.4316407 365.147461,9.8789063 L365.147461,55.78125 L365.147461,55.78125 Z M382.571289,42.6015625 C382.571289,45.8457031 382.237305,48.0761719 381.344727,50.7617187 C378.105469,53.9941406 373.298828,55.8945312 367.831055,55.8945312 L366.265625,55.8945312 L366.265625,27.1933594 C367.270508,27.0800782 368.165039,26.96875 369.058594,26.96875 C377.100586,26.96875 382.571289,34.2265625 382.571289,42.6015625 L382.571289,42.6015625 Z M378.214844,16.1347656 L366.265625,26.7441406 L366.265625,10.328125 C370.510742,12.0039062 374.307617,14.0136719 378.214844,16.1347656 L378.214844,16.1347656 Z M429.814453,55.2285156 L429.145508,55.6699218 L419.654297,49.6386718 L419.654297,22.9492188 L429.704102,27.8613282 L429.814453,55.2285156 L429.814453,55.2285156 Z M390.057617,6.5273438 L389.048828,5.6347657 L385.367188,9.5449219 C385.367188,9.5449219 375.869141,6.4179688 368.165039,1.953125 C357.555664,9.9921875 349.514648,15.6875 339.126953,23.0625 C336.668945,26.7441406 335.329101,31.546875 335.329101,36.7988281 C335.329101,51.0898437 348.507812,62.2578125 365.147461,62.2578125 C375.981445,57.6835937 383.69043,51.3144531 389.385742,43.609375 C389.719727,42.0488281 389.832031,39.8125 389.832031,38.5839844 C389.832031,28.1953125 382.796875,22.390625 375.313477,20.6035156 L390.057617,6.5273438 L390.057617,6.5273438 Z M438.081055,23.8398438 L424.677734,16.9199219 C420.544922,20.7128907 416.524414,23.5039063 411.166016,26.1835938 C411.498047,27.1933594 411.834961,31.3242188 411.834961,33.8945313 L411.834961,52.3242188 C410.608398,53.6601563 409.373047,54.3359376 408.146484,54.3359376 C406.918945,54.3359376 405.578125,53.7753907 403.904297,52.5488282 L403.904297,7.8710938 C403.904297,5.3007813 405.466797,2.2832032 407.478516,2.2832032 L407.478516,1.953125 C403.345703,1.953125 399.657226,3.8476562 398.546875,6.9746094 C397.536133,5.3007813 395.976562,3.8476563 393.629883,3.8476563 L393.517578,4.2968751 C394.857422,4.2968751 396.200195,8.091797 396.200195,11.6640626 L396.200195,47.5175782 C396.200195,50.9804688 395.750977,52.7675782 394.414062,54.6679688 L403.345703,61.1464844 L411.719726,53.8847656 L424.677734,61.6972656 C429.592773,57.1230468 432.5,54.4414062 437.967773,51.2050781 C437.634766,49.5273437 437.520508,46.2890625 437.520508,44.9472656 L437.520508,29.0917969 C437.520508,26.4082031 437.634766,24.9570312 438.081055,23.8398438 L438.081055,23.8398438 Z M225.987305,56.1191406 C222.745117,53.2109375 218.280274,50.7617187 211.132813,50.7617187 L222.079102,39.1445312 L225.875,42.4902344 L225.987305,56.1191406 L225.987305,56.1191406 Z M229.670898,29.203125 L220.292969,39.3613281 L216.15918,36.3476562 L216.15918,22.8359375 C220.404297,25.7382812 222.858398,27.3027344 229.670898,29.203125 L229.670898,29.203125 Z M275.796875,56.3378906 L275.353516,56.6796875 L266.417969,51.2050781 L266.417969,23.2832031 L275.796875,28.8671875 L275.796875,56.3378906 L275.796875,56.3378906 Z M284.506836,52.2070312 C284.064453,50.7617187 283.954101,49.3027343 283.954101,47.9667968 L283.954101,24.5117188 L271.777344,17.6972657 C267.870117,21.6054688 263.398438,24.3984376 257.706055,27.5273438 C258.039062,28.6425782 258.264648,30.4296876 258.264648,31.6582032 L258.264648,51.4238282 C256.478516,53.326172 254.6875,54.4414063 253.126953,54.4414063 C251.5625,54.4414063 250.000976,53.7753907 248.323242,51.9882813 C248.323242,50.4218751 248.43457,33.4453125 248.43457,23.0625001 L257.145508,23.0625001 L257.145508,20.9375001 L248.43457,20.6035157 C248.43457,20.6035157 248.546875,12.4492188 248.658203,10.7714845 L247.65625,10.7714845 L235.478516,23.6171876 C230.231445,22.8359376 226.323242,20.9375001 220.624023,17.0312501 C216.15918,21.6054689 213.141602,23.7265626 207.783203,26.2968751 C208.003906,28.9785157 208.115234,30.4296876 208.115234,33.1113282 C208.115234,36.2382813 208.115234,37.2421876 207.892578,39.9277344 L215.041016,44.9472656 L208.338867,51.9882812 C205.438477,55.0039062 204.320312,57.4589843 204.320312,59.9121093 C204.320312,62.1484374 205.214844,63.9335937 206.552734,65.6113281 L207.335938,65.1679687 C206.44043,63.8242187 205.880859,62.2578125 205.880859,60.8124999 C205.880859,58.4667968 207.111328,56.455078 210.573242,56.455078 C214.037109,56.455078 217.834961,58.6855468 221.630859,61.6972655 C225.875,57.7910155 229.004883,55.2285155 233.691406,52.8828124 L233.691406,41.4882812 C233.691406,40.1464843 233.803711,39.5878906 234.140625,38.6953124 L226.989258,33.8945312 L236.150391,23.9511718 L240.393555,23.9511718 C240.393555,34.1152343 240.28125,47.1835937 240.28125,48.6347656 C240.28125,50.421875 239.946289,52.6582031 238.719727,54.4414062 L248.882813,61.921875 L257.594727,53.9941406 L270.216797,62.2578125 C275.131836,57.6835938 279.038086,54.6679688 284.506836,52.2070312 L284.506836,52.2070312 Z M325.053711,53.7753906 L324.273438,52.8828125 L320.472656,56.1191406 C318.573242,56.1191406 317.233399,54.7792968 317.233399,52.6582031 C317.233399,50.7617187 317.349609,28.6425781 317.458008,24.8476562 C316.00586,21.9394531 314.104492,19.7089843 309.863281,18.2558593 L299.697266,25.7382812 C299.697266,22.6132812 297.911133,19.8203124 294.451172,18.0332031 L288.529297,23.0625 L291.65918,26.4082031 C291.65918,26.4082031 291.546875,46.0644531 291.546875,49.3027343 C291.546875,52.5488281 289.202148,54.8925781 289.202148,54.8925781 L298.470703,61.6972656 L303.386719,55.6699218 L299.697266,52.3242187 L299.697266,27.75 C301.485352,25.40625 303.386719,24.3984375 305.064453,24.3984375 C306.958008,24.3984375 308.523438,25.7382813 308.970703,27.640625 C309.083008,29.0917969 309.083008,31.4375 309.083008,33.8945312 C309.083008,37.6914062 309.083008,51.0898437 308.970703,56.3378906 C309.638672,58.6855468 313.102539,61.921875 315.337891,61.921875 L325.053711,53.7753906 L325.053711,53.7753906 Z M161.541016,37.1328125 L161.317383,53.2109375 C159.644531,54.109375 158.52832,54.6679687 156.962891,55.78125 C155.736328,55.0039062 154.507812,54.21875 153.054688,53.3261719 L153.054688,32.5527344 L161.541016,37.1328125 L161.541016,37.1328125 Z M162.771484,23.171875 C162.771484,25.625 160.539063,26.8574219 153.054688,31.546875 L153.054688,24.3984375 C153.054688,20.8242187 153.27832,18.8164063 153.388672,17.3613281 L151.827149,17.3613281 C152.049805,18.9257812 152.163086,20.8242187 152.163086,24.3984375 L152.163086,52.8828125 C147.470703,50.0878906 141.775391,47.1835937 135.742188,46.7382813 C141.44043,43.5000001 147.134766,39.1445313 147.134766,32.7734375 L147.134766,18.8164062 C147.134766,14.3476562 148.921875,11.6640624 153.613281,7.6464843 C157.296875,13.1171874 158.75293,15.4628905 161.65332,20.3789062 C162.325195,21.4941406 162.771484,22.6132812 162.771484,23.171875 L162.771484,23.171875 Z M194.37793,56.1191406 L193.933594,56.4550781 L185.107422,51.0898437 L185.107422,22.8359375 L194.37793,28.0839844 L194.37793,56.1191406 L194.37793,56.1191406 Z M148.141602,5.7480469 L147.918945,5.0761719 C143.225586,5.0761719 140.657227,4.515625 138.199219,4.0722657 C135.854492,3.7382813 133.842774,3.2890626 131.053711,3.2890626 C123.680664,3.2890626 118.87793,7.0878907 118.87793,13.2304688 C118.87793,15.8007813 119.435547,17.25 121.111328,19.1503907 L121.78125,18.4804688 C120.886719,17.3613282 120.44336,16.2460938 120.44336,15.015625 C120.44336,12.3378906 122.676758,9.9921875 127.589844,9.9921875 C131.277344,9.9921875 134.626953,10.6621094 137.53125,11.3320313 C131.277344,15.9082032 127.476563,19.2597657 127.476563,28.9785157 C126.584961,28.6425782 125.354492,28.4218751 123.680664,28.4218751 C118.990235,28.4218751 116.535156,31.5468751 116.535156,34.560547 C116.535156,35.904297 116.867188,37.357422 117.762696,38.3593751 L118.544922,37.9160157 C118.208985,37.2421876 117.985352,36.5722657 117.985352,35.9042969 C117.985352,33.8945313 119.548828,32.328125 122.453125,32.328125 C125.023438,32.328125 126.920899,33.4453125 127.8125,35.0117188 C127.8125,41.8222657 126.47461,45.2871094 122.901367,45.2871094 L122.901367,46.0644532 C128.260742,46.0644532 134.738282,42.1582032 134.738282,35.904297 L134.738282,23.3945312 C134.738281,13.1171875 140.767578,8.3183594 148.141602,5.7480469 L148.141602,5.7480469 Z M171.483398,34.0039062 L161.541016,27.4160156 C165.338867,25.0703125 166.569336,24.3984375 167.907227,23.3945312 C170.254883,21.71875 170.924805,20.7128906 170.924805,19.7089843 C170.924805,18.9257812 170.588867,17.4746093 168.802734,14.7949218 C166.569336,11.4433593 164.447266,8.205078 159.979492,1.9531249 C153.724609,6.1972655 150.263672,8.7597655 143.674805,13.9023437 C140.993164,16.0214843 138.981445,19.3730468 138.981445,23.6171875 C138.981445,25.0703125 139.094726,32.5527344 139.094726,37.46875 C139.094726,41.2636719 138.422851,43.2773438 134.402344,46.6230469 C124.6875,46.6230469 118.87793,52.8828125 118.87793,59.1347657 C118.87793,61.8164063 119.772461,64.6093751 121.78125,66.8378907 L122.453125,66.1699219 C121.222656,64.8261719 120.220703,62.7070313 120.220703,60.2519531 C120.220703,56.8984375 122.676758,53.2109375 130.382812,53.2109375 C138.871094,53.2109375 146.798828,59.0234375 151.378906,61.8164063 C157.96875,56.2304688 162.102539,53.8847657 170.588867,51.0898438 L170.588867,36.90625 C170.588867,35.9042969 170.924805,34.8984375 171.483398,34.0039062 L171.483398,34.0039062 Z M203.425781,24.2871094 L190.583008,17.25 C186.670898,21.1621094 181.648438,24.2871094 175.952148,27.4160156 C176.731445,29.7617187 176.508789,32.7734375 176.508789,36.5722656 C176.508789,45.8457031 176.619141,50.8710937 174.945312,53.3261718 L189.128906,62.0390624 C193.038086,58.0156249 197.28125,54.892578 202.979492,51.7636718 C202.532227,50.3105468 202.419922,48.8593749 202.419922,47.517578 L202.419922,31.658203 C202.419922,26.96875 202.868164,25.2949219 203.425781,24.2871094 L203.425781,24.2871094 Z M16.0146484,41.7128906 C16.0146484,45.0625 15.4550781,47.0742187 13.6689453,48.6347656 C9.5380859,44.3925781 7.3027344,38.359375 7.3027344,31.546875 C7.3027344,27.75 7.9746094,24.8476562 9.3125,22.8359375 C11.546875,20.8242187 14.2285156,18.9257813 16.0146484,17.9199219 L16.0146484,26.5214844 L16.0146484,41.7128906 L16.0146484,41.7128906 Z M28.7470703,55.78125 C23.1650391,55.1113281 18.359375,52.9902344 14.7841797,49.7539062 C21.7099609,44.7285156 23.2724609,41.8222656 23.2724609,36.2382812 L23.2724609,13.5644531 L23.4951171,13.3417969 C25.7294921,13.5644531 26.9609374,13.6757813 28.7470702,13.7890625 L28.7470702,55.78125 L28.7470703,55.78125 Z M95.7587891,31.9941406 L86.7138672,39.2519531 L86.7138672,23.6171875 L87.046875,23.2832031 L95.7587891,31.9941406 L95.7587891,31.9941406 Z M102.794922,49.9785156 L102.125,49.3027344 C98.5507812,53.1074219 96.9892578,54.109375 94.3066406,54.109375 C92.296875,54.109375 89.9511718,52.8828125 86.7138672,49.8632812 L86.7138672,40.7050781 L102.794922,28.421875 L91.8505859,17.5859375 C87.046875,21.3808594 86.265625,22.0527344 82.8027343,24.7363281 C80.9042968,26.1835937 79.7890624,26.8574219 78.5585937,27.4160156 C78.7822265,28.7539062 79.0048828,30.6542968 79.0048828,31.9941406 L79.0048828,52.4335937 C77.1083984,54.2187499 75.3193359,55.0039062 73.9814453,55.0039062 C72.1923828,55.0039062 70.8525391,53.8847656 70.8525391,51.9882812 L70.8525391,24.6230469 C69.7373047,21.1621094 67.6152344,18.9257813 63.4833985,17.4746094 L53.3164063,25.7382813 L53.3164063,6.5273438 C53.3164063,3.7382813 54.8828125,1.1679688 56.3330079,0.4980469 L56.3330079,0.1601562 C52.201172,0.1601562 49.2968751,2.84375 48.069336,5.9726562 L46.2832032,2.2832031 L45.6113282,2.3964843 L45.6113282,51.5390624 C41.5908204,53.6601562 37.2353516,56.0058593 32.4316407,56.0058593 C31.5410157,56.0058593 30.756836,56.0058593 29.8623048,55.8945312 L29.8623048,13.9023438 C31.9843751,14.1230469 33.3271486,14.234375 34.5546876,14.234375 C36.451172,14.234375 37.6826173,13.9023438 38.5742188,13.453125 L44.0488282,2.2832031 L43.1533203,2.0625 C41.03125,6.3066406 39.9169922,6.9746094 35.3369141,6.9746094 C33.2148438,6.9746094 28.5234375,6.4179688 23.8310547,5.859375 C19.3642578,5.3007812 14.7841797,4.7421875 12.4414063,4.7421875 C5.5166016,4.7421875 1.4951172,9.5449219 1.4951172,14.4609375 C1.4951172,16.46875 2.163086,18.4804687 3.506836,20.2675781 L4.2851563,19.7089843 C3.3945313,18.5917968 2.834961,17.1367187 2.834961,15.9082031 C2.834961,13.9023437 4.3984376,12.1152343 8.6425782,12.1152343 C10.319336,12.1152343 16.2382813,12.6757812 21.8212891,13.1171874 C15.4550782,16.2460936 10.2080079,19.595703 4.0654297,24.2871093 C1.3837891,27.8613281 0.0410156,32.4394531 0.0410156,37.1328124 C0.0410156,49.1933593 9.2011718,62.2578124 29.4189453,62.2578124 C35.3369141,58.9101562 44.0488281,53.8847655 44.0488281,53.8847655 L52.0898437,61.1464843 L57.6728515,55.6699218 L53.3164062,51.0898437 L53.3164062,27.75 C55.2148437,25.1816406 57.3378906,24.0644531 59.015625,24.0644531 C60.9130859,24.0644531 62.6992188,25.40625 63.1474609,27.8613281 L63.1474609,55.8945312 C63.8164062,58.2421874 66.6074218,60.4707031 69.4013671,61.2539062 L79.3408202,53.7753906 L90.8466796,61.6972656 L102.794922,49.9785156 L102.794922,49.9785156 Z" id="Shape"></path>
            </g>
        </g>
    </g>
</svg>