<?xml version="1.0" encoding="UTF-8" standalone="no"?>
<svg width="19px" height="16px" viewBox="0 0 19 16" version="1.1" xmlns="http://www.w3.org/2000/svg" xmlns:xlink="http://www.w3.org/1999/xlink">
    <!-- Generator: Sketch 39.1 (31720) - http://www.bohemiancoding.com/sketch -->
    <title>comment</title>
    <desc>Created with Sketch.</desc>
    <defs></defs>
    <g id="Page-1" stroke="none" stroke-width="1" fill="none" fill-rule="evenodd">
        <g id="comment" fill="#1588AB">
            <path d="M17.7305835,3.17799726 C16.9010636,2.19684526 15.7743139,1.4218561 14.3506249,0.853099679 C12.9269722,0.284413158 11.3716088,0 9.68507932,0 C8.42705464,0 7.22437243,0.16792888 6.07703271,0.503856537 C4.92969299,0.839749245 3.9413358,1.29376882 3.11188853,1.86581043 C2.282296,2.43792193 1.62236231,3.11809505 1.13154276,3.90629485 C0.640723211,4.6945296 0.39534975,5.52110315 0.39534975,6.38587572 C0.39534975,7.38362839 0.708012989,8.31854316 1.33359366,9.189956 C1.95917434,10.061264 2.81440453,10.7930914 3.89968368,11.3851237 C3.82356961,11.6511189 3.73372886,11.9039733 3.63001618,12.1432676 C3.52633981,12.3827366 3.43304923,12.5792186 3.35010814,12.7321894 C3.26709441,12.8851602 3.15488426,13.0548715 3.01307823,13.2411135 C2.87149008,13.4273206 2.76436388,13.558763 2.69177227,13.635161 C2.61925328,13.7116988 2.50003453,13.8382833 2.3340434,14.0143203 C2.16827015,14.1907417 2.06107132,14.3054087 2.01273744,14.3587405 C2.00572884,14.361851 1.97813023,14.3920118 1.92976003,14.448454 C1.88142614,14.5048963 1.85716841,14.5331349 1.85716841,14.5331349 L1.79496259,14.6228135 C1.76035538,14.6728252 1.744813,14.7043839 1.74822651,14.7174198 C1.75171266,14.7304557 1.744813,14.7639367 1.72752755,14.8170588 C1.71020579,14.8703906 1.71198518,14.9103371 1.73268414,14.937038 L1.73268414,14.9469634 C1.76046432,15.0668028 1.82092707,15.1631915 1.91418133,15.2362344 C2.0074356,15.3093473 2.11296398,15.3393333 2.23040334,15.3258082 C2.67978866,15.2726161 3.07372255,15.1997829 3.41235027,15.1064696 C5.22332771,14.6605931 6.81311678,13.8559324 8.18160855,12.6916139 C8.69988146,12.7448059 9.20101417,12.7715068 9.68486144,12.7715068 C11.3713546,12.7715068 12.9266454,12.4870936 14.3504433,11.9181625 C15.7742413,11.349476 16.900882,10.5744519 17.7302567,9.59347459 C18.5597766,8.61274198 18.9744821,7.54327441 18.9744821,6.38584077 C18.9745184,5.22837218 18.5598492,4.15897452 17.7305835,3.17799726 L17.7305835,3.17799726 Z" id="Shape"></path>
        </g>
    </g>
</svg>