<?xml version="1.0" encoding="UTF-8" standalone="no"?>
<svg width="20px" height="15px" viewBox="0 0 20 15" version="1.1" xmlns="http://www.w3.org/2000/svg" xmlns:xlink="http://www.w3.org/1999/xlink">
    <!-- Generator: Sketch 39.1 (31720) - http://www.bohemiancoding.com/sketch -->
    <title>email</title>
    <desc>Created with Sketch.</desc>
    <defs></defs>
    <g id="Page-1" stroke="none" stroke-width="1" fill="none" fill-rule="evenodd">
        <g id="email" fill="#1588AB">
            <path d="M10.253,9.176 C10.059,9.376 9.819,9.48 9.539,9.48 C9.266,9.48 9.019,9.377 8.819,9.176 L7.027,7.39 L0.352,14.055 L18.72,14.055 L12.056,7.39 L10.253,9.176 L10.253,9.176 L10.253,9.176 Z M19.076,0.356 L12.411,7.036 L19.077,13.696 L19.076,0.356 L19.076,0.356 Z M9.187,8.838 C9.282,8.932 9.397,8.98 9.539,8.98 C9.684,8.98 9.801,8.93 9.896,8.837 L18.73,0 L0.352,0 L9.186,8.838 L9.187,8.838 L9.187,8.838 Z M0,13.697 L6.673,7.035 L0,0.355 L0,13.697 L0,13.697 Z"></path>
        </g>
    </g>
</svg>