<?xml version="1.0" encoding="UTF-8" standalone="no"?>
<svg width="8px" height="16px" viewBox="0 0 8 16" version="1.1" xmlns="http://www.w3.org/2000/svg" xmlns:xlink="http://www.w3.org/1999/xlink">
    <!-- Generator: Sketch 39.1 (31720) - http://www.bohemiancoding.com/sketch -->
    <title>facebook</title>
    <desc>Created with Sketch.</desc>
    <defs></defs>
    <g id="Page-1" stroke="none" stroke-width="1" fill="none" fill-rule="evenodd">
        <g id="facebook" fill="#1588AB">
            <path d="M4.98,5.24 L7.47,5.24 L7.174,7.992 L4.964,7.992 L4.964,16 L1.65,16 L1.65,7.992 L0,7.992 L0,5.24 L1.652,5.24 L1.652,3.587 C1.652,2.402 1.932,1.507 2.49,0.907 C3.046,0.302 3.964,0 5.24,0 L7.45,0 L7.45,2.75 L6.077,2.75 C5.821,2.75 5.617,2.774 5.467,2.82 C5.317,2.866 5.207,2.94 5.137,3.046 C5.067,3.151 5.02,3.263 4.997,3.376 C4.974,3.494 4.964,3.654 4.964,3.866 L4.964,5.24 L4.98,5.24 L4.98,5.24 L4.98,5.24 Z"></path>
        </g>
    </g>
</svg>