<?xml version="1.0" encoding="UTF-8" standalone="no"?>
<svg width="20px" height="20px" viewBox="0 0 20 20" version="1.1" xmlns="http://www.w3.org/2000/svg" xmlns:xlink="http://www.w3.org/1999/xlink">
    <!-- Generator: Sketch 39.1 (31720) - http://www.bohemiancoding.com/sketch -->
    <title>print</title>
    <desc>Created with Sketch.</desc>
    <defs></defs>
    <g id="Page-1" stroke="none" stroke-width="1" fill="none" fill-rule="evenodd">
        <g id="print" fill="#1588AB">
            <rect id="Rectangle-path" x="6" y="15" width="6.23942387" height="1.2481893"></rect>
            <path d="M5.24802469,1.24802469 L15.231358,1.24802469 L15.231358,3.74395062 L16.4791358,3.74395062 L16.4791358,1.24802469 C16.479177,0.559465021 15.9210288,0 15.231358,0 L5.24802469,0 C4.55880658,0 4,0.559465021 4,1.24802469 L4,3.74395062 L5.24802469,3.74395062 L5.24802469,1.24802469 L5.24802469,1.24802469 Z" id="Shape"></path>
            <rect id="Rectangle-path" x="6" y="12" width="7.48720165" height="1.24802469"></rect>
            <path d="M18.7191358,5 L1.24802469,5 C0.558806584,5 0,5.55930041 0,6.24790123 L0,13.7358025 C0,14.4254733 0.558806584,14.9835802 1.24802469,14.9835802 L3.74395062,14.9835802 L3.74395062,18.7276132 C3.74395062,19.4174897 4.3027572,19.9755967 4.99197531,19.9755967 L14.9753086,19.9755967 C15.6649794,19.9755967 16.2230864,19.4174897 16.2230864,18.7276132 L16.2230864,14.9835802 L18.7190947,14.9835802 C19.4088066,14.9835802 19.9669136,14.4254733 19.9669136,13.7358025 L19.9669136,6.24790123 C19.9669547,5.55930041 19.4088477,5 18.7191358,5 L18.7191358,5 Z M14.9753086,18.7276543 L4.99197531,18.7276543 L4.99197531,11.2397531 L14.9753086,11.2397531 L14.9753086,18.7276543 L14.9753086,18.7276543 Z M17.4709465,8.74395062 C16.7812346,8.74395062 16.2231276,8.18576132 16.2231276,7.49592593 C16.2231276,6.80740741 16.7812346,6.24790123 17.4709465,6.24790123 C18.1608642,6.24790123 18.7191358,6.80736626 18.7191358,7.49592593 C18.7191358,8.18572016 18.160823,8.74395062 17.4709465,8.74395062 L17.4709465,8.74395062 Z" id="Shape"></path>
        </g>
    </g>
</svg>