<?xml version="1.0" encoding="UTF-8" standalone="no"?>
<svg width="230px" height="37px" viewBox="0 0 230 37" version="1.1" xmlns="http://www.w3.org/2000/svg" xmlns:xlink="http://www.w3.org/1999/xlink">
    <!-- Generator: Sketch 39.1 (31720) - http://www.bohemiancoding.com/sketch -->
    <title>search</title>
    <desc>Created with Sketch.</desc>
    <defs>
        <rect id="path-1" x="0" y="0" width="230" height="37"></rect>
        <mask id="mask-2" maskContentUnits="userSpaceOnUse" maskUnits="objectBoundingBox" x="0" y="0" width="230" height="37" fill="white">
            <use xlink:href="#path-1"></use>
        </mask>
    </defs>
    <g id="final" stroke="none" stroke-width="1" fill="none" fill-rule="evenodd">
        <g id="remix3" transform="translate(-1540.000000, -13.000000)">
            <g id="search" transform="translate(1540.000000, 13.000000)">
                <use id="Rectangle-5" stroke="#E7E7E7" mask="url(#mask-2)" stroke-width="2" fill="#FFFFFF" xlink:href="#path-1"></use>
                <g id="Group-2" transform="translate(11.000000, 8.000000)">
                    <text id="Search" opacity="0.271688433" font-family="BentonSans-RegularItalic, BentonSans" font-size="16" font-style="italic" font-weight="normal" fill="#444444">
                        <tspan x="28" y="16">Search</tspan>
                    </text>
                    <g id="overlay-search" transform="translate(10.000000, 10.500000) scale(-1, 1) translate(-10.000000, -10.500000) " fill="#9B9B9B">
                        <path d="M19.5,8.54545455 C19.5,4.10562377 15.932531,0.5 11.5238095,0.5 C7.11508804,0.5 3.54761902,4.10562377 3.54761902,8.54545455 C3.54761902,12.9852853 7.11508804,16.5909091 11.5238095,16.5909091 C15.932531,16.5909091 19.5,12.9852853 19.5,8.54545455 Z M6.54761902,8.54545455 C6.54761902,5.75537587 8.77912848,3.5 11.5238095,3.5 C14.2684905,3.5 16.5,5.75537587 16.5,8.54545455 C16.5,11.3355332 14.2684905,13.5909091 11.5238095,13.5909091 C8.77912848,13.5909091 6.54761902,11.3355332 6.54761902,8.54545455 Z" id="Oval-1"></path>
                        <polygon id="Line" points="0.33847501 18.5359057 2.4710488 20.6459125 8.13771546 14.9186398 6.00514168 12.808633"></polygon>
                    </g>
                </g>
            </g>
        </g>
    </g>
</svg>