<?xml version="1.0" encoding="UTF-8" standalone="no"?>
<svg width="167px" height="20px" viewBox="0 0 167 20" version="1.1" xmlns="http://www.w3.org/2000/svg" xmlns:xlink="http://www.w3.org/1999/xlink">
    <!-- Generator: Sketch 39.1 (31720) - http://www.bohemiancoding.com/sketch -->
    <title>social</title>
    <desc>Created with Sketch.</desc>
    <defs></defs>
    <g id="Page-1" stroke="none" stroke-width="1" fill="none" fill-rule="evenodd">
        <g id="social" fill="#999999">
            <g id="facebook" transform="translate(119.000000, 2.000000)">
                <path d="M4.98,5.24 L7.47,5.24 L7.174,7.992 L4.964,7.992 L4.964,16 L1.65,16 L1.65,7.992 L0,7.992 L0,5.24 L1.652,5.24 L1.652,3.587 C1.652,2.402 1.932,1.507 2.49,0.907 C3.046,0.302 3.964,0 5.24,0 L7.45,0 L7.45,2.75 L6.077,2.75 C5.821,2.75 5.617,2.774 5.467,2.82 C5.317,2.866 5.207,2.94 5.137,3.046 C5.067,3.151 5.02,3.263 4.997,3.376 C4.974,3.494 4.964,3.654 4.964,3.866 L4.964,5.24 L4.98,5.24 L4.98,5.24 L4.98,5.24 Z"></path>
            </g>
            <g id="twitter" transform="translate(147.000000, 2.000000)">
                <path d="M19.374,1.897 C18.829,2.707 18.164,3.391 17.388,3.95 C17.403,4.066 17.408,4.236 17.408,4.457 C17.408,5.531 17.255,6.597 16.946,7.657 C16.636,8.717 16.166,9.74 15.534,10.724 C14.901,11.71 14.144,12.57 13.264,13.304 C12.378,14.04 11.32,14.636 10.084,15.094 C8.849,15.548 7.524,15.769 6.11,15.754 C3.89,15.754 1.852,15.157 0,13.966 C0.294,13.996 0.616,14.009 0.97,14.009 C2.824,14.009 4.474,13.444 5.915,12.311 C5.045,12.297 4.275,12.031 3.597,11.516 C2.917,11.003 2.447,10.349 2.181,9.554 C2.447,9.597 2.697,9.618 2.933,9.618 C3.287,9.618 3.633,9.576 3.97,9.486 C3.058,9.296 2.292,8.84 1.673,8.119 C1.059,7.401 0.757,6.556 0.772,5.584 L0.772,5.541 C1.332,5.849 1.926,6.019 2.557,6.048 C2.014,5.678 1.58,5.208 1.257,4.636 C0.933,4.062 0.772,3.429 0.772,2.736 C0.772,2.014 0.956,1.346 1.325,0.726 C2.323,1.95 3.53,2.928 4.942,3.666 C6.354,4.398 7.879,4.811 9.509,4.898 C9.449,4.59 9.421,4.288 9.421,3.994 C9.421,2.889 9.811,1.949 10.591,1.17 C11.371,0.39 12.311,0 13.417,0 C14.563,0 15.534,0.42 16.329,1.258 C17.225,1.082 18.063,0.758 18.843,0.285 C18.536,1.228 17.953,1.957 17.101,2.473 C17.865,2.383 18.631,2.176 19.398,1.853 L19.373,1.896 L19.374,1.897 L19.374,1.897 Z"></path>
            </g>
            <g id="email" transform="translate(0.000000, 3.000000)">
                <path d="M10.253,9.176 C10.059,9.376 9.819,9.48 9.539,9.48 C9.266,9.48 9.019,9.377 8.819,9.176 L7.027,7.39 L0.352,14.055 L18.72,14.055 L12.056,7.39 L10.253,9.176 L10.253,9.176 L10.253,9.176 Z M19.076,0.356 L12.411,7.036 L19.077,13.696 L19.076,0.356 L19.076,0.356 Z M9.187,8.838 C9.282,8.932 9.397,8.98 9.539,8.98 C9.684,8.98 9.801,8.93 9.896,8.837 L18.73,0 L0.352,0 L9.186,8.838 L9.187,8.838 L9.187,8.838 Z M0,13.697 L6.673,7.035 L0,0.355 L0,13.697 L0,13.697 Z"></path>
            </g>
            <g id="print" transform="translate(40.000000, 0.000000)">
                <rect id="Rectangle-path" x="6" y="15" width="6.23942387" height="1.2481893"></rect>
                <path d="M5.24802469,1.24802469 L15.231358,1.24802469 L15.231358,3.74395062 L16.4791358,3.74395062 L16.4791358,1.24802469 C16.479177,0.559465021 15.9210288,0 15.231358,0 L5.24802469,0 C4.55880658,0 4,0.559465021 4,1.24802469 L4,3.74395062 L5.24802469,3.74395062 L5.24802469,1.24802469 L5.24802469,1.24802469 Z" id="Shape"></path>
                <rect id="Rectangle-path" x="6" y="12" width="7.48720165" height="1.24802469"></rect>
                <path d="M18.7191358,5 L1.24802469,5 C0.558806584,5 0,5.55930041 0,6.24790123 L0,13.7358025 C0,14.4254733 0.558806584,14.9835802 1.24802469,14.9835802 L3.74395062,14.9835802 L3.74395062,18.7276132 C3.74395062,19.4174897 4.3027572,19.9755967 4.99197531,19.9755967 L14.9753086,19.9755967 C15.6649794,19.9755967 16.2230864,19.4174897 16.2230864,18.7276132 L16.2230864,14.9835802 L18.7190947,14.9835802 C19.4088066,14.9835802 19.9669136,14.4254733 19.9669136,13.7358025 L19.9669136,6.24790123 C19.9669547,5.55930041 19.4088477,5 18.7191358,5 L18.7191358,5 Z M14.9753086,18.7276543 L4.99197531,18.7276543 L4.99197531,11.2397531 L14.9753086,11.2397531 L14.9753086,18.7276543 L14.9753086,18.7276543 Z M17.4709465,8.74395062 C16.7812346,8.74395062 16.2231276,8.18576132 16.2231276,7.49592593 C16.2231276,6.80740741 16.7812346,6.24790123 17.4709465,6.24790123 C18.1608642,6.24790123 18.7191358,6.80736626 18.7191358,7.49592593 C18.7191358,8.18572016 18.160823,8.74395062 17.4709465,8.74395062 L17.4709465,8.74395062 Z" id="Shape"></path>
            </g>
            <g id="comment" transform="translate(80.000000, 2.000000)">
                <path d="M17.7305835,3.17799726 C16.9010636,2.19684526 15.7743139,1.4218561 14.3506249,0.853099679 C12.9269722,0.284413158 11.3716088,0 9.68507932,0 C8.42705464,0 7.22437243,0.16792888 6.07703271,0.503856537 C4.92969299,0.839749245 3.9413358,1.29376882 3.11188853,1.86581043 C2.282296,2.43792193 1.62236231,3.11809505 1.13154276,3.90629485 C0.640723211,4.6945296 0.39534975,5.52110315 0.39534975,6.38587572 C0.39534975,7.38362839 0.708012989,8.31854316 1.33359366,9.189956 C1.95917434,10.061264 2.81440453,10.7930914 3.89968368,11.3851237 C3.82356961,11.6511189 3.73372886,11.9039733 3.63001618,12.1432676 C3.52633981,12.3827366 3.43304923,12.5792186 3.35010814,12.7321894 C3.26709441,12.8851602 3.15488426,13.0548715 3.01307823,13.2411135 C2.87149008,13.4273206 2.76436388,13.558763 2.69177227,13.635161 C2.61925328,13.7116988 2.50003453,13.8382833 2.3340434,14.0143203 C2.16827015,14.1907417 2.06107132,14.3054087 2.01273744,14.3587405 C2.00572884,14.361851 1.97813023,14.3920118 1.92976003,14.448454 C1.88142614,14.5048963 1.85716841,14.5331349 1.85716841,14.5331349 L1.79496259,14.6228135 C1.76035538,14.6728252 1.744813,14.7043839 1.74822651,14.7174198 C1.75171266,14.7304557 1.744813,14.7639367 1.72752755,14.8170588 C1.71020579,14.8703906 1.71198518,14.9103371 1.73268414,14.937038 L1.73268414,14.9469634 C1.76046432,15.0668028 1.82092707,15.1631915 1.91418133,15.2362344 C2.0074356,15.3093473 2.11296398,15.3393333 2.23040334,15.3258082 C2.67978866,15.2726161 3.07372255,15.1997829 3.41235027,15.1064696 C5.22332771,14.6605931 6.81311678,13.8559324 8.18160855,12.6916139 C8.69988146,12.7448059 9.20101417,12.7715068 9.68486144,12.7715068 C11.3713546,12.7715068 12.9266454,12.4870936 14.3504433,11.9181625 C15.7742413,11.349476 16.900882,10.5744519 17.7302567,9.59347459 C18.5597766,8.61274198 18.9744821,7.54327441 18.9744821,6.38584077 C18.9745184,5.22837218 18.5598492,4.15897452 17.7305835,3.17799726 L17.7305835,3.17799726 Z" id="Shape"></path>
            </g>
        </g>
    </g>
</svg>