<?xml version="1.0" encoding="UTF-8" standalone="no"?>
<svg width="20px" height="16px" viewBox="0 0 20 16" version="1.1" xmlns="http://www.w3.org/2000/svg" xmlns:xlink="http://www.w3.org/1999/xlink">
    <!-- Generator: Sketch 39.1 (31720) - http://www.bohemiancoding.com/sketch -->
    <title>twitter</title>
    <desc>Created with Sketch.</desc>
    <defs></defs>
    <g id="Page-1" stroke="none" stroke-width="1" fill="none" fill-rule="evenodd">
        <g id="twitter" fill="#1588AB">
            <path d="M19.374,1.897 C18.829,2.707 18.164,3.391 17.388,3.95 C17.403,4.066 17.408,4.236 17.408,4.457 C17.408,5.531 17.255,6.597 16.946,7.657 C16.636,8.717 16.166,9.74 15.534,10.724 C14.901,11.71 14.144,12.57 13.264,13.304 C12.378,14.04 11.32,14.636 10.084,15.094 C8.849,15.548 7.524,15.769 6.11,15.754 C3.89,15.754 1.852,15.157 0,13.966 C0.294,13.996 0.616,14.009 0.97,14.009 C2.824,14.009 4.474,13.444 5.915,12.311 C5.045,12.297 4.275,12.031 3.597,11.516 C2.917,11.003 2.447,10.349 2.181,9.554 C2.447,9.597 2.697,9.618 2.933,9.618 C3.287,9.618 3.633,9.576 3.97,9.486 C3.058,9.296 2.292,8.84 1.673,8.119 C1.059,7.401 0.757,6.556 0.772,5.584 L0.772,5.541 C1.332,5.849 1.926,6.019 2.557,6.048 C2.014,5.678 1.58,5.208 1.257,4.636 C0.933,4.062 0.772,3.429 0.772,2.736 C0.772,2.014 0.956,1.346 1.325,0.726 C2.323,1.95 3.53,2.928 4.942,3.666 C6.354,4.398 7.879,4.811 9.509,4.898 C9.449,4.59 9.421,4.288 9.421,3.994 C9.421,2.889 9.811,1.949 10.591,1.17 C11.371,0.39 12.311,0 13.417,0 C14.563,0 15.534,0.42 16.329,1.258 C17.225,1.082 18.063,0.758 18.843,0.285 C18.536,1.228 17.953,1.957 17.101,2.473 C17.865,2.383 18.631,2.176 19.398,1.853 L19.373,1.896 L19.374,1.897 L19.374,1.897 Z"></path>
        </g>
    </g>
</svg>